<?xml version="1.0" encoding="utf-8"?>
<!-- Generator: Adobe Illustrator 28.2.0, SVG Export Plug-In . SVG Version: 6.00 Build 0)  -->
<svg version="1.1" id="图层_1" xmlns="http://www.w3.org/2000/svg" xmlns:xlink="http://www.w3.org/1999/xlink" x="0px" y="0px"
	 viewBox="0 0 841.89 368.6" style="enable-background:new 0 0 841.89 368.6;" xml:space="preserve">
<style type="text/css">
	.st0{fill:#1F08A3;}
	.st1{fill:url(#SVGID_1_);}
	.st2{fill:url(#SVGID_00000072969730447947445580000008550966321517582978_);}
	.st3{fill:#191935;}
	.st4{fill:url(#SVGID_00000134944507322615418430000016680692556048730035_);}
	.st5{fill:url(#SVGID_00000079475197965678598910000014857864397887059643_);}
	.st6{fill:url(#SVGID_00000011017870202623612780000003647410284342320817_);}
	.st7{fill:url(#SVGID_00000158717432109861805260000005726541443920151984_);}
	.st8{fill:url(#SVGID_00000142876900428461769000000008069403543541257898_);}
	.st9{fill:url(#SVGID_00000043431278852236617580000017143239672604928432_);}
	.st10{fill:url(#SVGID_00000117640229439763589850000006678067399342795696_);}
	.st11{fill:url(#SVGID_00000110458653123900400710000000913276274190314169_);}
	.st12{fill:url(#SVGID_00000031170474287730726890000016823097828633490353_);}
	.st13{fill:url(#SVGID_00000009584095435268706030000012050499560522802058_);}
	.st14{fill:url(#SVGID_00000020368880049868222280000013138163128272475547_);}
	.st15{fill:url(#SVGID_00000091714870927564046460000005861143291349344438_);}
	.st16{fill:url(#SVGID_00000121271759264793556690000000860873829552106905_);}
	.st17{fill:url(#SVGID_00000038375467373794976910000013035737086102657724_);}
	.st18{fill:url(#SVGID_00000012456568760464884060000014807595715017774739_);}
	.st19{fill:url(#SVGID_00000131350652581417219040000010050473447924313765_);}
</style>
<g id="图层_1_00000155127390320397588370000011557700728645101750_">
</g>
<g>
	<g>
		<g>
			<path class="st0" d="M251.92,232.88c-4.82-2.55-8.57-6.17-11.24-10.85c-2.68-4.69-4-10.11-4-16.28V179.1
				c0-6.08,1.34-11.45,4-16.1s6.41-8.24,11.24-10.79c4.82-2.55,10.43-3.83,16.8-3.83c6.38,0,11.97,1.21,16.8,3.64
				c4.82,2.43,8.57,5.84,11.24,10.24c2.66,4.39,4,9.48,4,15.23c0,0.41-0.14,0.74-0.43,0.99c-0.28,0.25-0.61,0.36-1.02,0.36
				l-16.98,1.1c-0.96,0-1.43-0.46-1.43-1.35c0-3.86-1.12-6.95-3.35-9.24s-5.18-3.45-8.85-3.45s-6.61,1.17-8.85,3.51
				c-2.24,2.35-3.35,5.4-3.35,9.2v28c0,3.78,1.12,6.82,3.35,9.13c2.24,2.3,5.18,3.45,8.85,3.45s6.61-1.15,8.85-3.45
				c2.24-2.3,3.35-5.34,3.35-9.13c0-0.9,0.47-1.35,1.43-1.35l16.98,0.87c0.39,0,0.74,0.13,1.02,0.36c0.28,0.25,0.43,0.54,0.43,0.87
				c0,5.84-1.34,10.98-4,15.42c-2.68,4.44-6.41,7.87-11.24,10.3c-4.82,2.43-10.43,3.64-16.8,3.64
				C262.33,236.71,256.74,235.43,251.92,232.88z"/>
			<path class="st0" d="M316.18,230.79c-5.02-3.95-8.36-9.29-10.05-16.03c-0.96-3.37-1.43-7.07-1.43-11.1
				c0-4.52,0.52-8.5,1.56-11.97c1.83-6.49,5.24-11.58,10.22-15.23c4.98-3.65,11.02-5.5,18.11-5.5c7.01,0,12.95,1.83,17.81,5.5
				c4.87,3.65,8.25,8.69,10.16,15.1c1.12,3.7,1.67,7.65,1.67,11.84c0,3.78-0.44,7.4-1.32,10.85c-1.67,6.91-5.02,12.38-10.05,16.41
				c-5.02,4.03-11.17,6.05-18.41,6.05C327.3,236.71,321.2,234.74,316.18,230.79z M340.21,216.91c1.51-1.53,2.63-3.59,3.34-6.22
				c0.47-2.14,0.72-4.49,0.72-7.02c0-2.47-0.28-4.85-0.83-7.15c-0.65-2.55-1.72-4.52-3.23-5.92s-3.43-2.09-5.73-2.09
				c-4.63,0-7.65,2.68-9.09,8.02c-0.47,1.97-0.72,4.36-0.72,7.15c0,2.55,0.24,4.9,0.72,7.02c0.63,2.63,1.73,4.71,3.29,6.22
				c1.56,1.53,3.48,2.28,5.8,2.28C336.78,219.2,338.69,218.44,340.21,216.91z"/>
			<path class="st0" d="M407.21,172.39c0.28-0.28,0.61-0.43,1.02-0.43h16.98c0.39,0,0.74,0.14,1.02,0.43
				c0.28,0.28,0.43,0.65,0.43,1.06v55.14c0,11.26-3.15,19.32-9.45,24.17c-6.3,4.85-14.27,7.28-23.91,7.28
				c-3.59,0-7.37-0.33-11.35-0.99c-0.8-0.08-1.2-0.61-1.2-1.61l0.6-15.29c0-0.58,0.16-0.96,0.47-1.17c0.32-0.2,0.72-0.22,1.2-0.06
				c3.28,0.74,6.3,1.1,9.09,1.1c4.54,0,8.13-1.07,10.76-3.21c2.63-2.14,3.95-5.51,3.95-10.11l-0.83,0.87
				c-2.87,2.96-7.01,4.44-12.43,4.44c-5.26,0-10.08-1.2-14.47-3.57c-4.38-2.38-7.53-6.58-9.45-12.58c-1.28-3.95-1.91-8.8-1.91-14.55
				c0-6.33,0.76-11.51,2.27-15.54c1.83-5.1,4.76-9.17,8.79-12.21c4.02-3.04,8.71-4.57,14.05-4.57c5.73,0,10.16,1.81,13.28,5.43
				c0.16,0.17,0.32,0.22,0.47,0.19c0.16-0.05,0.24-0.19,0.24-0.43v-2.71C406.8,173.02,406.92,172.67,407.21,172.39z M406.8,203.16
				c0-2.22-0.08-3.97-0.24-5.24c-0.16-1.28-0.47-2.49-0.96-3.64c-0.63-1.81-1.65-3.23-3.06-4.25c-1.4-1.02-3.09-1.54-5.09-1.54
				c-3.75,0-6.41,1.94-8.02,5.8c-1.2,2.3-1.8,5.34-1.8,9.13c0,4.03,0.52,6.99,1.56,8.88c0.72,1.73,1.8,3.13,3.23,4.19
				c1.43,1.07,3.15,1.61,5.13,1.61c4.06,0,6.77-1.89,8.13-5.67C406.44,210.52,406.8,207.43,406.8,203.16z"/>
			<path class="st0" d="M451.94,234.49l-24.14-83.37l-0.13-0.49c0-0.82,0.44-1.23,1.31-1.23h18.3c0.88,0,1.43,0.41,1.67,1.23
				l13.75,56.13c0.08,0.25,0.2,0.36,0.36,0.36s0.28-0.13,0.36-0.36l13.51-56.13c0.24-0.82,0.8-1.23,1.67-1.23h17.94
				c0.47,0,0.83,0.17,1.07,0.49c0.24,0.33,0.28,0.74,0.13,1.23l-24.51,83.37c-0.24,0.82-0.76,1.23-1.56,1.23h-18.17
				C452.69,235.72,452.17,235.31,451.94,234.49z"/>
			<path class="st0" d="M504.84,163.26c-1.95-2.02-2.93-4.58-2.93-7.7c0-3.21,0.98-5.8,2.93-7.76c1.95-1.97,4.44-2.96,7.46-2.96
				s5.51,0.99,7.46,2.96c1.95,1.97,2.93,4.57,2.93,7.76c0,3.04-0.98,5.59-2.93,7.65c-1.95,2.06-4.44,3.09-7.46,3.09
				S506.79,165.27,504.84,163.26z M502.69,235.29c-0.28-0.28-0.43-0.63-0.43-1.04v-60.81c0-0.41,0.14-0.76,0.43-1.06
				c0.28-0.28,0.61-0.43,1.02-0.43h16.98c0.39,0,0.74,0.14,1.02,0.43c0.28,0.28,0.43,0.65,0.43,1.06v60.81
				c0,0.41-0.14,0.76-0.43,1.04c-0.28,0.28-0.61,0.43-1.02,0.43h-16.98C503.31,235.72,502.96,235.58,502.69,235.29z"/>
			<path class="st0" d="M651.35,207.97c-0.08,0.99-0.6,1.48-1.56,1.48h-36.46c-0.16,0-0.32,0.06-0.47,0.19
				c-0.16,0.13-0.2,0.27-0.13,0.43c0.16,0.91,0.55,2.09,1.2,3.57c0.96,1.73,2.39,3.12,4.3,4.19c1.91,1.07,4.27,1.61,7.06,1.61
				c5.02,0,8.96-1.69,11.84-5.06c0.32-0.41,0.68-0.61,1.07-0.61c0.39,0,0.72,0.16,0.96,0.49l9.21,10.85
				c0.32,0.25,0.47,0.58,0.47,0.99c0,0.33-0.16,0.66-0.47,0.99c-2.79,3.13-6.24,5.51-10.35,7.15s-8.58,2.47-13.45,2.47
				c-7.26,0-13.4-1.62-18.47-4.87c-5.07-3.24-8.71-7.8-10.95-13.62c-1.67-4.11-2.5-9.24-2.5-15.42c0-4.27,0.63-8.39,1.91-12.33
				c2.08-6.08,5.48-10.87,10.22-14.36s10.38-5.24,16.91-5.24c5.26,0,9.97,1.17,14.11,3.51c4.14,2.35,7.51,5.59,10.09,9.75
				c2.58,4.16,4.28,8.87,5.09,14.13C651.39,200.69,651.5,203.94,651.35,207.97z M613.46,194.52c-0.32,0.91-0.52,1.76-0.6,2.58
				c-0.16,0.41,0,0.61,0.47,0.61h16.98c0.32,0,0.47-0.16,0.47-0.49c0-0.66-0.16-1.48-0.47-2.47c-0.55-2.05-1.57-3.62-3.06-4.69
				c-1.48-1.07-3.32-1.61-5.56-1.61C617.55,188.49,614.81,190.5,613.46,194.52z"/>
			<path class="st0" d="M665.93,230.79c-5.02-3.95-8.36-9.29-10.05-16.03c-0.96-3.37-1.43-7.07-1.43-11.1
				c0-4.52,0.52-8.5,1.56-11.97c1.83-6.49,5.24-11.58,10.22-15.23c4.98-3.65,11.02-5.5,18.11-5.5c7.01,0,12.95,1.83,17.81,5.5
				c4.87,3.65,8.25,8.69,10.16,15.1c1.12,3.7,1.67,7.65,1.67,11.84c0,3.78-0.44,7.4-1.32,10.85c-1.67,6.91-5.02,12.38-10.05,16.41
				c-5.02,4.03-11.17,6.05-18.41,6.05C677.05,236.71,670.95,234.74,665.93,230.79z M689.96,216.91c1.51-1.53,2.63-3.59,3.35-6.22
				c0.47-2.14,0.72-4.49,0.72-7.02c0-2.47-0.28-4.85-0.83-7.15c-0.65-2.55-1.72-4.52-3.23-5.92c-1.51-1.4-3.43-2.09-5.73-2.09
				c-4.63,0-7.65,2.68-9.09,8.02c-0.47,1.97-0.72,4.36-0.72,7.15c0,2.55,0.24,4.9,0.72,7.02c0.63,2.63,1.73,4.71,3.29,6.22
				c1.56,1.53,3.48,2.28,5.8,2.28C686.53,219.2,688.45,218.44,689.96,216.91z"/>
			<path class="st0" d="M717.33,235.23c-0.24-0.33-0.2-0.74,0.13-1.23l22.6-41.07c0.16-0.25,0.16-0.49,0-0.74l-22.6-41.07
				l-0.24-0.74c0-0.66,0.44-0.99,1.32-0.99h18.41c0.88,0,1.48,0.33,1.8,0.99l13.51,25.91c0.24,0.33,0.47,0.33,0.72,0l13.62-25.91
				c0.32-0.66,0.91-0.99,1.8-0.99h18.41c0.55,0,0.91,0.17,1.07,0.49c0.16,0.33,0.13,0.74-0.13,1.23l-22.47,41.07
				c-0.08,0.25-0.08,0.49,0,0.74l22.47,41.07c0.16,0.33,0.24,0.58,0.24,0.74c0,0.66-0.39,0.99-1.2,0.99h-18.3
				c-0.8,0-1.4-0.33-1.8-0.99l-13.75-25.78c-0.24-0.41-0.47-0.41-0.72,0l-13.62,25.78c-0.39,0.66-0.99,0.99-1.8,0.99h-18.28
				C717.98,235.72,717.57,235.56,717.33,235.23z"/>
		</g>
		<path class="st0" d="M586.89,149.87c-0.28-0.28-0.61-0.43-1.02-0.43h-16.98c-0.39,0-0.74,0.14-1.01,0.43
			c-0.28,0.28-0.43,0.63-0.43,1.06v25.65c0,0.25-0.08,0.41-0.24,0.49c-0.16,0.08-0.32,0-0.47-0.25c-2.95-3.86-7.29-5.8-13.02-5.8
			c-5.73,0-10.61,1.56-14.65,4.69c-4.03,3.12-6.96,7.23-8.79,12.33c-1.67,4.6-2.5,9.78-2.5,15.54c0,5.1,0.63,9.87,1.91,14.32
			c1.75,5.84,4.72,10.44,8.9,13.81c4.19,3.37,8.99,5.06,14.41,5.06c5.98,0,10.57-2.27,13.75-6.79c0.16-0.16,0.32-0.22,0.47-0.19
			c0.16,0.05,0.24,0.19,0.24,0.43v4.08c0,0.41,0.14,0.76,0.43,1.04c0.28,0.28,0.61,0.43,1.01,0.43h16.98c0.39,0,0.74-0.14,1.02-0.43
			c0.28-0.28,0.43-0.63,0.43-1.04v-83.37C587.31,150.52,587.17,150.17,586.89,149.87z M567.06,208.9l-12.8,7.62
			c-4.14,2.47-9.32-0.61-9.32-5.56V195.7c0-4.95,5.18-8.02,9.32-5.56l12.8,7.62C571.2,200.25,571.2,206.42,567.06,208.9z"/>
	</g>
	<g>
		<g>
			
				<linearGradient id="SVGID_1_" gradientUnits="userSpaceOnUse" x1="59.2757" y1="254.7704" x2="135.9786" y2="126.215" gradientTransform="matrix(1 0 0 -1 0 369.2756)">
				<stop  offset="0" style="stop-color:#19D46A"/>
				<stop  offset="1" style="stop-color:#0D00B5"/>
			</linearGradient>
			<path class="st1" d="M160.69,271.07h-42.1c-0.88,0-1.72-0.44-2.2-1.18L41.9,106.64c-1.2-1.76,0.08-4.16,2.2-4.16h42.1
				c0.88,0,1.72,0.44,2.2,1.18l74.49,163.25C164.09,268.68,162.83,271.07,160.69,271.07z"/>
		</g>
		<g>
			
				<linearGradient id="SVGID_00000052810148107182236330000012848981250606710167_" gradientUnits="userSpaceOnUse" x1="146.394" y1="179.088" x2="200.0336" y2="58.4906" gradientTransform="matrix(1 0 0 1 0 76.8546)">
				<stop  offset="4.256583e-04" style="stop-color:#D70066"/>
				<stop  offset="1" style="stop-color:#0D00B5"/>
			</linearGradient>
			<path style="fill:url(#SVGID_00000052810148107182236330000012848981250606710167_);" d="M235.89,102.48h-42.66
				c-0.8,0-1.56,0.39-2.02,1.07l-74.81,163.72c-1.09,1.62,0.06,3.8,2.02,3.8h42.66c0.8,0,1.56-0.39,2.02-1.07l74.81-163.72
				C239,104.66,237.85,102.48,235.89,102.48z"/>
		</g>
		<g>
			<path class="st3" d="M218.63,111.51c-7.17-0.43-15.24,4.27-26.77,18.35c-2.74,3.34-12.85,3.26-11.59,10.33
				c6.11,34.58-25.94,107.11-18.77,107.53s25.09-13.28,31.42-21.29c6.33-8.02,10.54-14.55,15.39-24.46
				c4.85-9.91,9.91-24.25,14.33-39.64c4.43-15.39,4.65-30.57,4.85-39.21C227.56,120.36,225.81,111.92,218.63,111.51z"/>
			<path d="M189.18,136.8c-1.69-9.28-8.93-28.14-13.78-34.05c-4.85-5.91-9.64-8.82-17.29-5.91c-4.22,1.61-14.13,7.32-21.29,29.31
				c-2.3,7.04-6.11,10.54-9.48,15.18c-3.37,4.65-8.85,10.96-8.85,19.83c0,8.85,3.62,16.43,8.47,22.11
				c4.85,5.69,25.78,22.46,30.25,27.1c4.47,4.65,16.74,16.77,19.91,22.27c3.17,5.48,3.17,5.48,3.17,5.48s6.02-13.92,7.91-18.35
				c1.89-4.43,5.37-27.83,5.69-41.12C194.17,165.38,190.39,143.46,189.18,136.8z"/>
			<path d="M164.13,255.42c-0.76,0.39-1.29-1.87,1.4-5.75c2.69-3.87,8.09-11.39,12.44-14.68c4.35-3.29,15.26-12.1,19.37-13.02
				c4.11-0.94,4.08,2.74,2.11,4.25c-3.76,2.91-4.46,2.2-9.28,6.55c-4.82,4.35-10.68,6.69-14.32,9.98
				C172.22,246.03,166.35,254.25,164.13,255.42z"/>
			<path d="M124.89,189.1c-12.46-3.64-32.79-7.59-40.54,20.88c0,0-5.46,2.39-9.62,11.84c-6.63,15.06,7.89,55.39,50.79,44.9
				c20.36-4.98,37.37-15.78,42.38-20.66c7.58-7.37,12.47-7.83,12.47-7.83C177.15,227.43,152.74,197.23,124.89,189.1z"/>
			<path d="M197.04,224.68c4.09-3.78,9.35-9.48,11.67-13.48c2.32-4,4.55-9.59,4.96-11.24c0.41-1.65-0.61-6.61,1.81-6.33
				c2.44,0.3,0.94,4.22-0.09,6.08c-1.4,2.52-3.06,6.35-4.17,9.13c-1.12,2.79-5.06,7.83-8.24,11.39c-3.18,3.56-6.33,6.09-6.33,6.09
				L197.04,224.68z"/>
			<path d="M195.8,225.98c0,0,5.06-3.04,9.17-5.95c4.09-2.91,12.38-10.39,14.44-13.06c2.06-2.66,2.39-5.24,3.48-4.55
				c1.92,1.23-1.26,3.98-2.63,5.31c-1.37,1.32-6.06,5.94-9.72,8.91C206.88,219.62,197.4,226.46,195.8,225.98z"/>
			
				<linearGradient id="SVGID_00000070798706056830547700000003974558205504861373_" gradientUnits="userSpaceOnUse" x1="175.0956" y1="228.5175" x2="187.4265" y2="140.3143" gradientTransform="matrix(1 0 0 -1 0 369.2756)">
				<stop  offset="0" style="stop-color:#8890F4"/>
				<stop  offset="0.2835" style="stop-color:#FFCFFD"/>
				<stop  offset="0.6062" style="stop-color:#F4F0FE"/>
				<stop  offset="0.7338" style="stop-color:#EFFFFF"/>
				<stop  offset="1" style="stop-color:#75D9DD"/>
			</linearGradient>
			<path style="fill:url(#SVGID_00000070798706056830547700000003974558205504861373_);" d="M183.02,228.43
				c0.08,0.41,0.39,0.66,0.44,0.25c0.91-8.69,4.36-18.96,4.47-44.43c0.11-26.91,0-39.18-19.64-44.18c-1.29-0.33-2.54-0.03-2.33,1.28
				c0.47,3.01,7.29,17.84,10.69,37.18C180.85,202.38,182.2,224.39,183.02,228.43z"/>
			
				<linearGradient id="SVGID_00000148655111165341704870000015822622798822732439_" gradientUnits="userSpaceOnUse" x1="180.2612" y1="133.8598" x2="180.2585" y2="133.8624" gradientTransform="matrix(1 0 0 -1 0 369.2756)">
				<stop  offset="0" style="stop-color:#00C6B8"/>
				<stop  offset="0.8389" style="stop-color:#4B4BFF"/>
			</linearGradient>
			<path style="fill:url(#SVGID_00000148655111165341704870000015822622798822732439_);" d="M180.27,235.42
				C180.2,235.47,180.31,235.37,180.27,235.42L180.27,235.42z"/>
			
				<linearGradient id="SVGID_00000162335655504960668340000008042784563402819467_" gradientUnits="userSpaceOnUse" x1="91.8193" y1="162.3303" x2="182.7514" y2="137.3534" gradientTransform="matrix(1 0 0 -1 0 369.2756)">
				<stop  offset="5.071865e-03" style="stop-color:#6F69F4"/>
				<stop  offset="0.4148" style="stop-color:#FFCEAD"/>
				<stop  offset="0.5961" style="stop-color:#EFEFB9"/>
				<stop  offset="0.6727" style="stop-color:#E7FFBF"/>
				<stop  offset="1" style="stop-color:#75D9DD"/>
			</linearGradient>
			<path style="fill:url(#SVGID_00000162335655504960668340000008042784563402819467_);" d="M98.06,216.36
				c-6.71,1.86,9.43,5.17,24.79,8.25c10.54,2.11,43.58,7.17,54.82,7.76c0.25,0.02,0.3-0.28,0.08-0.43
				c-11.17-7.34-36.02-23.21-43.1-23.21C121.93,208.71,103.08,214.98,98.06,216.36z"/>
			
				<linearGradient id="SVGID_00000183956648102935592230000000034257340353923987_" gradientUnits="userSpaceOnUse" x1="129.9311" y1="208.2058" x2="193.0715" y2="132.703" gradientTransform="matrix(1 0 0 -1 0 369.2756)">
				<stop  offset="5.071865e-03" style="stop-color:#6F69F4"/>
				<stop  offset="0.3821" style="stop-color:#FFAFFF"/>
				<stop  offset="0.5127" style="stop-color:#F5D1E4"/>
				<stop  offset="0.6727" style="stop-color:#E7FFBF"/>
				<stop  offset="0.9718" style="stop-color:#75D9DD"/>
			</linearGradient>
			<path style="fill:url(#SVGID_00000183956648102935592230000000034257340353923987_);" d="M136.52,164.49
				c0,0,5.26,11.15,13.61,18.03c7.18,5.92,13.48,9.73,15.81,12.46c7.94,9.29,11.01,25.56,14.93,33.32
				c0.58,1.13-28.73-27.91-43.64-52.68C133.82,169.95,135.6,162.96,136.52,164.49z"/>
			
				<linearGradient id="SVGID_00000127743825081950367160000014214139936879980969_" gradientUnits="userSpaceOnUse" x1="120.5534" y1="180.132" x2="113.4298" y2="185.2324" gradientTransform="matrix(0.9663 0.2574 0.2574 -0.9663 1.6568 269.9926)">
				<stop  offset="0" style="stop-color:#FFA2FF"/>
				<stop  offset="0.5569" style="stop-color:#FFFFB0"/>
				<stop  offset="0.7133" style="stop-color:#DDFFCA"/>
				<stop  offset="1" style="stop-color:#97FFFF"/>
			</linearGradient>
			<path style="fill:url(#SVGID_00000127743825081950367160000014214139936879980969_);" d="M155.29,115.81
				c3.06-0.57,11.29,4.06,11.29,6.49c0,1.1-11.76-1.07-13.8-2.13C150.06,118.75,153.27,116.18,155.29,115.81z"/>
			
				<linearGradient id="SVGID_00000054976593115952198230000008003013541946111389_" gradientUnits="userSpaceOnUse" x1="168.498" y1="247.5718" x2="163.8415" y2="254.2492" gradientTransform="matrix(0.9987 -0.0503 -0.0503 -0.9987 0.9774 386.0547)">
				<stop  offset="0" style="stop-color:#FFA2FF"/>
				<stop  offset="0.5569" style="stop-color:#FFFFB0"/>
				<stop  offset="0.7133" style="stop-color:#DDFFCA"/>
				<stop  offset="1" style="stop-color:#97FFFF"/>
			</linearGradient>
			<path style="fill:url(#SVGID_00000054976593115952198230000008003013541946111389_);" d="M149.94,124.45
				c1.48-1.29,7.8,0.05,8.96,1.23c1.24,1.26-6.21,2.13-8.65,2.38C148.19,128.25,148.45,125.74,149.94,124.45z"/>
			
				<linearGradient id="SVGID_00000169534306769865638960000010624933101701591231_" gradientUnits="userSpaceOnUse" x1="110.6462" y1="167.6579" x2="99.1469" y2="175.8909" gradientTransform="matrix(0.9322 0.362 0.362 -0.9322 11.275 241.6989)">
				<stop  offset="0" style="stop-color:#FFA2FF"/>
				<stop  offset="0.5569" style="stop-color:#FFFFB0"/>
				<stop  offset="0.7133" style="stop-color:#DDFFCA"/>
				<stop  offset="1" style="stop-color:#97FFFF"/>
			</linearGradient>
			<path style="fill:url(#SVGID_00000169534306769865638960000010624933101701591231_);" d="M164.36,104.99
				c4.57,0.41,13.81,13.86,11.8,15.47c-1.06,0.85-15.4-8-17.48-10.52C156.88,107.77,160.94,104.67,164.36,104.99z"/>
			
				<linearGradient id="SVGID_00000079458906221052217860000002178591648295304114_" gradientUnits="userSpaceOnUse" x1="162.8531" y1="71.2364" x2="157.6109" y2="74.9896" gradientTransform="matrix(0.8296 0.5584 0.5584 -0.8296 38.9717 104.0816)">
				<stop  offset="0" style="stop-color:#FFA2FF"/>
				<stop  offset="0.5569" style="stop-color:#FFFFB0"/>
				<stop  offset="0.7133" style="stop-color:#DDFFCA"/>
				<stop  offset="1" style="stop-color:#97FFFF"/>
			</linearGradient>
			<path style="fill:url(#SVGID_00000079458906221052217860000002178591648295304114_);" d="M210.08,125.93
				c2.3,0.35,6.93,5.43,6.39,7.18c-0.24,0.79-8.03-3.48-9.21-4.72C205.69,126.74,208.57,125.71,210.08,125.93z"/>
			
				<linearGradient id="SVGID_00000111909030176016825680000003151376107357579152_" gradientUnits="userSpaceOnUse" x1="189.1343" y1="139.3362" x2="185.6595" y2="144.3191" gradientTransform="matrix(0.9754 0.2206 0.2206 -0.9754 -7.4036 231.1159)">
				<stop  offset="0" style="stop-color:#FFA2FF"/>
				<stop  offset="0.5569" style="stop-color:#FFFFB0"/>
				<stop  offset="0.7133" style="stop-color:#DDFFCA"/>
				<stop  offset="1" style="stop-color:#97FFFF"/>
			</linearGradient>
			<path style="fill:url(#SVGID_00000111909030176016825680000003151376107357579152_);" d="M204.3,131.19
				c1.1-0.69,5.64,1.8,5.7,3.02c0.06,0.99-4.39-0.06-6.19-0.38C202.28,133.57,203.06,131.96,204.3,131.19z"/>
			
				<linearGradient id="SVGID_00000124859780877684741540000003625974166378130101_" gradientUnits="userSpaceOnUse" x1="158.4721" y1="62.348" x2="151.1771" y2="67.5709" gradientTransform="matrix(0.7882 0.6154 0.6154 -0.7882 56.9403 86.3531)">
				<stop  offset="0" style="stop-color:#FFA2FF"/>
				<stop  offset="0.5569" style="stop-color:#FFFFB0"/>
				<stop  offset="0.7133" style="stop-color:#DDFFCA"/>
				<stop  offset="1" style="stop-color:#97FFFF"/>
			</linearGradient>
			<path style="fill:url(#SVGID_00000124859780877684741540000003625974166378130101_);" d="M217.7,120.44
				c3.17,1.28,5.95,10.27,4.88,11.2c-1.15,0.99-9.06-6.66-10-8.9C211.77,120.81,215.31,119.48,217.7,120.44z"/>
			
				<linearGradient id="SVGID_00000151505342341095507280000017826952898926496684_" gradientUnits="userSpaceOnUse" x1="177.0845" y1="184.1351" x2="142.9964" y2="223.8563" gradientTransform="matrix(1 0 0 -1 0 369.2756)">
				<stop  offset="5.071865e-03" style="stop-color:#6F69F4"/>
				<stop  offset="0.3291" style="stop-color:#FFD9AD"/>
				<stop  offset="0.6346" style="stop-color:#EAFABD"/>
				<stop  offset="0.6727" style="stop-color:#E7FFBF"/>
				<stop  offset="1" style="stop-color:#75D9DD"/>
			</linearGradient>
			<path style="fill:url(#SVGID_00000151505342341095507280000017826952898926496684_);" d="M173.34,196.31
				c-0.98-4.96-2.65-25.72-7.8-38.06c-3.75-8.98-14.08-25.72-16.19-20.02c-3.09,8.35-10.11,16.16-7.72,22.36
				c2.38,6.16,10.5,14.69,16.58,20.03C164.09,185.75,173.43,196.75,173.34,196.31z"/>
			
				<linearGradient id="SVGID_00000039821377531076698740000016045699938930074037_" gradientUnits="userSpaceOnUse" x1="168.0164" y1="130.694" x2="81.7921" y2="131.8498" gradientTransform="matrix(0.9993 0.0362 0.0362 -0.9993 2.0222 360.6481)">
				<stop  offset="5.071865e-03" style="stop-color:#6F69F4"/>
				<stop  offset="0.3302" style="stop-color:#FFECEC"/>
				<stop  offset="0.5907" style="stop-color:#EDFACB"/>
				<stop  offset="0.6727" style="stop-color:#E7FFBF"/>
				<stop  offset="0.9718" style="stop-color:#75D9DD"/>
			</linearGradient>
			<path style="fill:url(#SVGID_00000039821377531076698740000016045699938930074037_);" d="M117.43,228.98
				c-7.92-1.15-19.95-3.64-27.47-5.12c-4.74-0.94,0.83,12.13,7.23,15.47c5.53,2.88,30.29,1.34,46.74-0.31
				c13.65-1.37,34.4-4.98,27.29-5.12C159.49,233.64,140.45,232.32,117.43,228.98z"/>
			
				<linearGradient id="SVGID_00000040549751368890075800000016406046424980702142_" gradientUnits="userSpaceOnUse" x1="104.442" y1="126.5369" x2="183.9285" y2="126.5369" gradientTransform="matrix(0.9986 -0.0528 -0.0528 -0.9986 -2.8922 382.0786)">
				<stop  offset="5.071865e-03" style="stop-color:#6F69F4"/>
				<stop  offset="0.3302" style="stop-color:#FFECEC"/>
				<stop  offset="0.5907" style="stop-color:#EDFACB"/>
				<stop  offset="0.6727" style="stop-color:#E7FFBF"/>
				<stop  offset="0.9718" style="stop-color:#75D9DD"/>
			</linearGradient>
			<path style="fill:url(#SVGID_00000040549751368890075800000016406046424980702142_);" d="M172.91,237.28
				c0.35-0.24,0.94-0.96,0.55-0.83c-6.13,1.97-28.62,8.25-53.23,10.87c-18.84,2-22.85,0.44-25.02,1.39
				c-2.6,1.13,4.63,10.88,20.68,10C134.38,257.67,162.38,244.1,172.91,237.28z"/>
			
				<linearGradient id="SVGID_00000163791769488651178610000006995591105667394192_" gradientUnits="userSpaceOnUse" x1="154.7833" y1="149.8526" x2="87.8201" y2="163.9461" gradientTransform="matrix(0.9991 0.0421 0.0421 -0.9991 1.5546 359.6285)">
				<stop  offset="5.071865e-03" style="stop-color:#6F69F4"/>
				<stop  offset="0.601" style="stop-color:#FFCEAD"/>
				<stop  offset="0.707" style="stop-color:#EFEFB9"/>
				<stop  offset="0.7518" style="stop-color:#E7FFBF"/>
				<stop  offset="0.976" style="stop-color:#75D9DD"/>
			</linearGradient>
			<path style="fill:url(#SVGID_00000163791769488651178610000006995591105667394192_);" d="M99.81,207.05
				c-1.15,0-1.24-3.51,2.74-5.24c0,0,4.44-5.58,13.21-3.89c6.05,1.17,15.76,6.69,14.49,6.41
				C125.62,203.29,105.6,207.05,99.81,207.05z"/>
			
				<linearGradient id="SVGID_00000058564881533081704170000010681590285087118983_" gradientUnits="userSpaceOnUse" x1="205.4404" y1="213.7062" x2="190.2183" y2="136.673" gradientTransform="matrix(1 0 0 -1 0 369.2756)">
				<stop  offset="0" style="stop-color:#8890F4"/>
				<stop  offset="0.4248" style="stop-color:#FFB8FD"/>
				<stop  offset="0.5488" style="stop-color:#F4D9FE"/>
				<stop  offset="0.6727" style="stop-color:#E7FFFF"/>
				<stop  offset="1" style="stop-color:#75D9DD"/>
			</linearGradient>
			<path style="fill:url(#SVGID_00000058564881533081704170000010681590285087118983_);" d="M188.91,224.52
				c0-0.43,3.89-6.5,8.99-33.55c3.18-16.79,2.36-31.58,1.91-34.49c-0.33-2.06,6.9,2.05,7.04,10.02c0.09,5.69-1.17,28.49-11.53,49.01
				C191.09,223.87,188.93,224.98,188.91,224.52z"/>
			
				<linearGradient id="SVGID_00000147192695983014756520000014062130175962991015_" gradientUnits="userSpaceOnUse" x1="204.0304" y1="167.3126" x2="218.5749" y2="220.9586" gradientTransform="matrix(1 0 0 -1 0 369.2756)">
				<stop  offset="5.071865e-03" style="stop-color:#6F69F4"/>
				<stop  offset="0.3291" style="stop-color:#FFCEAD"/>
				<stop  offset="0.5707" style="stop-color:#EFEFB9"/>
				<stop  offset="0.6727" style="stop-color:#E7FFBF"/>
				<stop  offset="1" style="stop-color:#75D9DD"/>
			</linearGradient>
			<path style="fill:url(#SVGID_00000147192695983014756520000014062130175962991015_);" d="M203.78,203.43
				c-0.13,0.2-0.47,0.06-0.36-0.14c2.06-4.63,7.76-24.24,9.04-39.07c0.5-5.83,0.54-10.47,1.18-12.03c0.74-1.84,5.13-6.77,6.14-7.39
				c2.05-1.21,1.09,11.12-3.57,26.43C213.32,180.66,207.5,196.94,203.78,203.43z"/>
		</g>
	</g>
</g>
</svg>
