<svg width="737" height="307" viewBox="0 0 737 307" fill="none" xmlns="http://www.w3.org/2000/svg">
<path d="M242.629 203.026C237.829 200.426 234.029 196.826 231.429 192.126C228.729 187.426 227.429 182.026 227.429 175.826V149.226C227.429 143.126 228.729 137.826 231.429 133.126C234.129 128.426 237.829 124.926 242.629 122.326C247.429 119.726 253.029 118.526 259.429 118.526C265.829 118.526 271.429 119.726 276.229 122.126C281.029 124.526 284.829 127.926 287.429 132.326C290.129 136.726 291.429 141.826 291.429 147.526C291.429 147.926 291.329 148.226 291.029 148.526C290.729 148.726 290.429 148.926 290.029 148.926L273.029 150.026C272.029 150.026 271.629 149.526 271.629 148.626C271.629 144.726 270.529 141.726 268.229 139.426C265.929 137.126 263.029 136.026 259.329 136.026C255.629 136.026 252.729 137.226 250.429 139.526C248.229 141.926 247.029 144.926 247.029 148.726V176.726C247.029 180.526 248.129 183.526 250.429 185.826C252.629 188.126 255.629 189.226 259.329 189.226C263.029 189.226 265.929 188.126 268.229 185.826C270.429 183.526 271.629 180.526 271.629 176.726C271.629 175.826 272.129 175.326 273.029 175.326L290.029 176.226C290.429 176.226 290.729 176.326 291.029 176.626C291.329 176.826 291.429 177.126 291.429 177.526C291.429 183.326 290.129 188.526 287.429 192.926C284.729 197.326 281.029 200.826 276.229 203.226C271.429 205.626 265.829 206.826 259.429 206.826C253.029 206.826 247.429 205.526 242.629 203.026Z" fill="#1F08A3"/>
<path d="M306.929 200.926C301.929 197.026 298.529 191.626 296.929 184.926C295.929 181.526 295.529 177.826 295.529 173.826C295.529 169.326 296.029 165.326 297.129 161.826C298.929 155.326 302.329 150.226 307.329 146.626C312.329 143.026 318.329 141.126 325.429 141.126C332.429 141.126 338.429 142.926 343.229 146.626C348.129 150.226 351.429 155.326 353.429 161.726C354.529 165.426 355.129 169.326 355.129 173.526C355.129 177.326 354.729 180.926 353.829 184.426C352.129 191.326 348.829 196.826 343.829 200.826C338.829 204.826 332.629 206.926 325.429 206.926C318.029 206.826 311.929 204.826 306.929 200.926ZM330.929 187.026C332.429 185.526 333.529 183.426 334.229 180.826C334.729 178.726 334.929 176.326 334.929 173.826C334.929 171.326 334.629 168.926 334.129 166.726C333.529 164.126 332.429 162.226 330.929 160.826C329.429 159.426 327.529 158.726 325.229 158.726C320.629 158.726 317.629 161.426 316.129 166.726C315.629 168.726 315.429 171.126 315.429 173.826C315.429 176.426 315.629 178.726 316.129 180.826C316.729 183.426 317.829 185.526 319.429 187.026C321.029 188.526 322.929 189.326 325.229 189.326C327.529 189.326 329.429 188.526 330.929 187.026Z" fill="#1F08A3"/>
<path d="M397.929 142.526C398.229 142.226 398.529 142.126 398.929 142.126H415.929C416.329 142.126 416.629 142.226 416.929 142.526C417.229 142.826 417.329 143.126 417.329 143.626V198.726C417.329 210.026 414.229 218.026 407.829 222.926C401.529 227.726 393.529 230.226 383.929 230.226C380.329 230.226 376.529 229.926 372.529 229.226C371.729 229.126 371.329 228.626 371.329 227.626L371.929 212.326C371.929 211.726 372.129 211.326 372.429 211.126C372.729 210.926 373.129 210.926 373.629 211.026C376.929 211.726 379.929 212.126 382.729 212.126C387.229 212.126 390.829 211.026 393.529 208.926C396.229 206.826 397.529 203.426 397.529 198.826L396.729 199.726C393.829 202.726 389.729 204.126 384.329 204.126C379.029 204.126 374.229 202.926 369.829 200.526C365.429 198.126 362.329 193.926 360.329 187.926C359.029 184.026 358.429 179.126 358.429 173.326C358.429 167.026 359.229 161.826 360.729 157.826C362.529 152.726 365.529 148.626 369.529 145.626C373.529 142.626 378.229 141.026 383.529 141.026C389.229 141.026 393.729 142.826 396.829 146.426C397.029 146.626 397.129 146.626 397.329 146.626C397.529 146.526 397.529 146.426 397.529 146.226V143.526C397.529 143.126 397.629 142.826 397.929 142.526ZM397.529 173.326C397.529 171.126 397.429 169.326 397.329 168.126C397.129 166.826 396.829 165.626 396.329 164.526C395.729 162.726 394.729 161.326 393.229 160.326C391.829 159.326 390.129 158.826 388.129 158.826C384.329 158.826 381.729 160.726 380.129 164.626C378.929 166.926 378.329 169.926 378.329 173.726C378.329 177.726 378.829 180.726 379.929 182.626C380.629 184.326 381.729 185.726 383.129 186.826C384.529 187.926 386.229 188.426 388.229 188.426C392.329 188.426 395.029 186.526 396.329 182.726C397.129 180.626 397.529 177.526 397.529 173.326Z" fill="#1F08A3"/>
<path d="M442.629 204.626L418.529 121.226L418.429 120.726C418.429 119.926 418.829 119.526 419.729 119.526H438.029C438.929 119.526 439.429 119.926 439.729 120.726L453.529 176.826C453.629 177.026 453.729 177.226 453.929 177.226C454.129 177.226 454.229 177.126 454.329 176.826L467.829 120.726C468.029 119.926 468.629 119.526 469.529 119.526H487.429C487.929 119.526 488.229 119.726 488.529 120.026C488.729 120.326 488.829 120.726 488.629 121.226L463.929 204.626C463.729 205.426 463.129 205.826 462.329 205.826H444.129C443.429 205.826 442.929 205.426 442.629 204.626Z" fill="#1F08A3"/>
<path d="M495.529 133.426C493.529 131.426 492.629 128.826 492.629 125.726C492.629 122.526 493.629 119.926 495.529 117.926C497.529 115.926 499.929 114.926 503.029 114.926C506.129 114.926 508.529 115.926 510.529 117.926C512.429 119.926 513.429 122.526 513.429 125.726C513.429 128.726 512.429 131.326 510.529 133.326C508.529 135.426 506.129 136.426 503.029 136.426C499.929 136.426 497.529 135.426 495.529 133.426ZM493.429 205.426C493.129 205.126 493.029 204.826 493.029 204.426V143.626C493.029 143.226 493.129 142.826 493.429 142.526C493.729 142.226 494.029 142.126 494.429 142.126H511.429C511.829 142.126 512.129 142.226 512.429 142.526C512.729 142.826 512.829 143.126 512.829 143.626V204.426C512.829 204.826 512.729 205.226 512.429 205.426C512.129 205.726 511.829 205.826 511.429 205.826H494.429C494.029 205.826 493.729 205.726 493.429 205.426Z" fill="#1F08A3"/>
<path d="M642.029 178.126C641.929 179.126 641.429 179.626 640.429 179.626H603.929C603.729 179.626 603.629 179.726 603.429 179.826C603.229 179.926 603.229 180.126 603.329 180.226C603.529 181.126 603.829 182.326 604.529 183.826C605.529 185.526 606.929 186.926 608.829 188.026C610.729 189.126 613.129 189.626 615.929 189.626C620.929 189.626 624.929 187.926 627.729 184.526C628.029 184.126 628.429 183.926 628.829 183.926C629.229 183.926 629.529 184.126 629.829 184.426L639.029 195.326C639.329 195.526 639.529 195.926 639.529 196.326C639.529 196.626 639.329 197.026 639.029 197.326C636.229 200.426 632.829 202.826 628.729 204.426C624.629 206.026 620.129 206.926 615.229 206.926C607.929 206.926 601.829 205.326 596.729 202.026C591.629 198.826 588.029 194.226 585.729 188.426C584.029 184.326 583.229 179.226 583.229 173.026C583.229 168.726 583.829 164.626 585.129 160.726C587.229 154.626 590.629 149.826 595.329 146.326C600.029 142.826 605.729 141.126 612.229 141.126C617.529 141.126 622.229 142.326 626.329 144.626C630.429 147.026 633.829 150.226 636.429 154.426C639.029 158.626 640.729 163.326 641.529 168.526C642.129 170.826 642.229 174.026 642.029 178.126ZM604.229 164.626C603.929 165.526 603.729 166.426 603.629 167.226C603.429 167.626 603.629 167.826 604.129 167.826H621.129C621.429 167.826 621.629 167.626 621.629 167.326C621.629 166.626 621.429 165.826 621.129 164.826C620.629 162.726 619.529 161.226 618.029 160.126C616.529 159.026 614.729 158.526 612.429 158.526C608.229 158.626 605.529 160.626 604.229 164.626Z" fill="#1F08A3"/>
<path d="M656.629 200.926C651.629 197.026 648.229 191.626 646.629 184.926C645.629 181.526 645.229 177.826 645.229 173.826C645.229 169.326 645.729 165.326 646.829 161.826C648.629 155.326 652.029 150.226 657.029 146.626C662.029 143.026 668.029 141.126 675.129 141.126C682.129 141.126 688.129 142.926 692.929 146.626C697.829 150.226 701.129 155.326 703.129 161.726C704.229 165.426 704.829 169.326 704.829 173.526C704.829 177.326 704.429 180.926 703.529 184.426C701.829 191.326 698.529 196.826 693.529 200.826C688.529 204.826 682.329 206.926 675.129 206.926C667.729 206.826 661.629 204.826 656.629 200.926ZM680.729 187.026C682.229 185.526 683.329 183.426 684.029 180.826C684.529 178.726 684.729 176.326 684.729 173.826C684.729 171.326 684.429 168.926 683.929 166.726C683.229 164.126 682.229 162.226 680.729 160.826C679.229 159.426 677.329 158.726 675.029 158.726C670.429 158.726 667.329 161.426 665.929 166.726C665.429 168.726 665.229 171.126 665.229 173.826C665.229 176.426 665.429 178.726 665.929 180.826C666.529 183.426 667.629 185.526 669.229 187.026C670.829 188.526 672.729 189.326 675.029 189.326C677.229 189.326 679.129 188.526 680.729 187.026Z" fill="#1F08A3"/>
<path d="M577.629 120.026C577.329 119.726 577.029 119.626 576.629 119.626H559.629C559.229 119.626 558.929 119.726 558.629 120.026C558.329 120.326 558.229 120.626 558.229 121.126V146.726C558.229 146.926 558.129 147.126 558.029 147.226C557.929 147.326 557.729 147.226 557.529 147.026C554.529 143.126 550.229 141.226 544.529 141.226C538.829 141.226 533.929 142.826 529.829 145.926C525.829 149.026 522.829 153.126 521.029 158.226C519.329 162.826 518.529 168.026 518.529 173.726C518.529 178.826 519.129 183.626 520.429 188.026C522.229 193.826 525.129 198.426 529.329 201.826C533.529 205.226 538.329 206.926 543.729 206.926C549.729 206.926 554.329 204.626 557.529 200.126C557.729 199.926 557.829 199.926 558.029 199.926C558.229 200.026 558.229 200.126 558.229 200.326V204.426C558.229 204.826 558.329 205.226 558.629 205.426C558.929 205.726 559.229 205.826 559.629 205.826H576.629C577.029 205.826 577.329 205.726 577.629 205.426C577.929 205.126 578.029 204.826 578.029 204.426V121.026C578.029 120.626 577.929 120.326 577.629 120.026ZM557.829 179.026L545.029 186.626C540.929 189.126 535.729 186.026 535.729 181.026V165.726C535.729 160.826 540.929 157.726 545.029 160.126L557.829 167.726C561.929 170.326 561.929 176.526 557.829 179.026Z" fill="#1F08A3"/>
<path d="M151.429 241.226H109.329C108.429 241.226 107.629 240.826 107.129 240.026L32.6294 76.7258C31.4294 74.9258 32.7294 72.5258 34.8294 72.5258H76.9294C77.8294 72.5258 78.6294 72.9258 79.1294 73.7258L153.629 236.926C154.829 238.826 153.529 241.226 151.429 241.226Z" fill="url(#paint0_linear_4629_775)"/>
<path d="M226.629 72.6257H183.929C183.129 72.6257 182.329 73.0257 181.929 73.7257L107.129 237.426C106.029 239.026 107.229 241.226 109.129 241.226H151.829C152.629 241.226 153.429 240.826 153.829 240.126L228.629 76.4257C229.729 74.8257 228.529 72.6257 226.629 72.6257Z" fill="url(#paint1_linear_4629_775)"/>
<path d="M209.329 81.6258C202.129 81.2258 194.129 85.9258 182.529 99.9258C179.829 103.226 169.629 103.226 170.929 110.226C177.029 144.826 145.029 217.326 152.129 217.726C159.229 218.126 177.229 204.426 183.529 196.426C189.829 188.426 194.029 181.826 198.929 171.926C203.829 162.026 208.829 147.726 213.229 132.326C217.629 116.926 217.829 101.726 218.129 93.1258C218.329 90.5258 216.529 82.0258 209.329 81.6258Z" fill="#191935"/>
<path d="M179.929 106.926C178.229 97.6258 171.029 78.8258 166.129 72.8258C161.229 66.8258 156.529 64.0258 148.829 66.9258C144.629 68.5258 134.729 74.2258 127.529 96.2258C125.229 103.226 121.429 106.726 118.029 111.426C114.629 116.026 109.229 122.426 109.229 131.226C109.229 140.126 112.829 147.626 117.729 153.326C122.629 159.026 143.529 175.826 147.929 180.426C152.429 185.026 164.629 197.226 167.829 202.726C171.029 208.226 171.029 208.226 171.029 208.226C171.029 208.226 177.029 194.326 178.929 189.826C180.829 185.426 184.329 162.026 184.629 148.726C184.929 135.526 181.129 113.626 179.929 106.926Z" fill="black"/>
<path d="M154.829 225.526C154.029 225.926 153.529 223.626 156.229 219.726C158.929 215.826 164.329 208.326 168.629 205.026C173.029 201.726 183.929 192.926 188.029 192.026C192.129 191.126 192.129 194.726 190.129 196.226C186.329 199.126 185.629 198.426 180.829 202.826C176.029 207.226 170.129 209.526 166.529 212.826C162.929 216.126 157.029 224.326 154.829 225.526Z" fill="black"/>
<path d="M115.629 159.226C103.129 155.626 82.8293 151.626 75.1293 180.126C75.1293 180.126 69.6293 182.526 65.5293 191.926C58.9293 207.026 73.4293 247.326 116.329 236.826C136.729 231.826 153.729 221.026 158.729 216.126C166.329 208.726 171.229 208.326 171.229 208.326C167.829 197.526 143.429 167.326 115.629 159.226Z" fill="black"/>
<path d="M187.729 194.826C191.829 191.026 197.129 185.326 199.429 181.326C201.729 177.326 204.029 171.726 204.429 170.126C204.829 168.526 203.829 163.526 206.229 163.826C208.629 164.126 207.129 168.026 206.129 169.926C204.729 172.426 203.029 176.326 201.929 179.026C200.829 181.826 196.829 186.826 193.729 190.426C190.529 194.026 187.429 196.526 187.429 196.526L187.729 194.826Z" fill="black"/>
<path d="M186.529 196.126C186.529 196.126 191.629 193.126 195.729 190.226C199.829 187.326 208.129 179.826 210.129 177.126C212.229 174.426 212.529 171.926 213.629 172.526C215.529 173.726 212.329 176.526 211.029 177.826C209.629 179.126 204.929 183.726 201.329 186.726C197.629 189.726 188.129 196.626 186.529 196.126Z" fill="black"/>
<path d="M173.729 198.526C173.829 198.926 174.129 199.226 174.129 198.726C175.029 190.026 178.529 179.726 178.629 154.326C178.729 127.426 178.629 115.126 159.029 110.126C157.729 109.826 156.529 110.126 156.729 111.426C157.229 114.426 164.029 129.226 167.429 148.626C171.529 172.526 172.929 194.526 173.729 198.526Z" fill="url(#paint2_linear_4629_775)"/>
<path d="M88.8293 186.526C82.1293 188.426 98.2293 191.726 113.629 194.726C124.129 196.826 157.229 201.926 168.429 202.526C168.629 202.526 168.729 202.226 168.529 202.126C157.329 194.826 132.529 178.926 125.429 178.926C112.629 178.826 93.8293 185.126 88.8293 186.526Z" fill="url(#paint3_linear_4629_775)"/>
<path d="M127.229 134.626C127.229 134.626 132.529 145.726 140.829 152.626C148.029 158.526 154.329 162.326 156.629 165.126C164.529 174.426 167.629 190.726 171.529 198.426C172.129 199.526 142.829 170.526 127.929 145.726C124.529 140.026 126.329 133.126 127.229 134.626Z" fill="url(#paint4_linear_4629_775)"/>
<path d="M146.029 85.9258C149.129 85.3258 157.329 90.0258 157.329 92.4258C157.329 93.5258 145.529 91.3258 143.529 90.3258C140.829 88.9258 144.029 86.3258 146.029 85.9258Z" fill="url(#paint5_linear_4629_775)"/>
<path d="M140.629 94.5258C142.129 93.2258 148.429 94.6258 149.629 95.7258C150.829 97.0258 143.429 97.8258 141.029 98.1258C138.929 98.3258 139.129 95.8258 140.629 94.5258Z" fill="url(#paint6_linear_4629_775)"/>
<path d="M155.13 75.1258C159.73 75.5258 168.93 89.0258 166.93 90.6258C165.83 91.4258 151.53 82.6258 149.43 80.1258C147.63 77.9258 151.63 74.8258 155.13 75.1258Z" fill="url(#paint7_linear_4629_775)"/>
<path d="M200.829 96.0258C203.129 96.3258 207.73 101.426 207.23 103.226C207.03 104.026 199.23 99.7258 198.03 98.5258C196.43 96.8258 199.329 95.8258 200.829 96.0258Z" fill="url(#paint8_linear_4629_775)"/>
<path d="M195.029 101.326C196.129 100.626 200.629 103.126 200.729 104.326C200.829 105.326 196.329 104.226 194.529 103.926C193.029 103.726 193.829 102.126 195.029 101.326Z" fill="url(#paint9_linear_4629_775)"/>
<path d="M208.429 90.5258C211.629 91.8258 214.329 100.826 213.329 101.726C212.229 102.726 204.229 95.0258 203.329 92.8258C202.529 90.9258 206.029 89.6258 208.429 90.5258Z" fill="url(#paint10_linear_4629_775)"/>
<path d="M164.029 166.426C163.029 161.426 161.429 140.726 156.229 128.326C152.429 119.326 142.129 102.626 140.029 108.326C136.929 116.726 129.929 124.526 132.329 130.726C134.729 136.926 142.829 145.426 148.929 150.726C154.829 155.926 164.129 166.926 164.029 166.426Z" fill="url(#paint11_linear_4629_775)"/>
<path d="M108.129 199.126C100.229 198.026 88.1291 195.526 80.6291 194.026C75.9291 193.126 81.4291 206.126 87.8291 209.526C93.3291 212.426 118.129 210.826 134.529 209.226C148.129 207.826 168.929 204.226 161.829 204.126C150.229 203.726 131.129 202.426 108.129 199.126Z" fill="url(#paint12_linear_4629_775)"/>
<path d="M163.629 207.426C164.029 207.226 164.529 206.426 164.229 206.626C158.129 208.626 135.629 214.826 111.029 217.526C92.2292 219.526 88.2292 217.926 86.0292 218.926C83.4292 220.026 90.6292 229.826 106.729 228.926C125.129 227.826 153.129 214.226 163.629 207.426Z" fill="url(#paint13_linear_4629_775)"/>
<path d="M90.5292 177.226C89.3292 177.226 89.3292 173.726 93.2292 172.026C93.2292 172.026 97.6292 166.426 106.429 168.126C112.529 169.326 122.229 174.826 120.929 174.526C116.329 173.426 96.3292 177.226 90.5292 177.226Z" fill="url(#paint14_linear_4629_775)"/>
<path d="M179.629 194.626C179.629 194.226 183.529 188.126 188.629 161.026C191.829 144.226 191.029 129.426 190.529 126.526C190.229 124.426 197.429 128.626 197.529 136.526C197.629 142.226 196.329 165.026 186.029 185.526C181.829 194.026 179.629 195.126 179.629 194.626Z" fill="url(#paint15_linear_4629_775)"/>
<path d="M194.529 173.526C194.429 173.726 194.029 173.626 194.129 173.426C196.229 168.826 201.929 149.226 203.129 134.326C203.629 128.526 203.629 123.826 204.329 122.326C205.029 120.526 209.429 115.526 210.429 114.926C212.529 113.726 211.529 126.026 206.829 141.326C204.029 150.826 198.229 167.026 194.529 173.526Z" fill="url(#paint16_linear_4629_775)"/>
<defs>
<linearGradient id="paint0_linear_4629_775" x1="49.9997" y1="84.6314" x2="126.703" y2="213.187" gradientUnits="userSpaceOnUse">
<stop stop-color="#19D46A"/>
<stop offset="1" stop-color="#0D00B5"/>
</linearGradient>
<linearGradient id="paint1_linear_4629_775" x1="137.115" y1="226.067" x2="190.755" y2="105.47" gradientUnits="userSpaceOnUse">
<stop offset="0.000425658" stop-color="#D70066"/>
<stop offset="1" stop-color="#0D00B5"/>
</linearGradient>
<linearGradient id="paint2_linear_4629_775" x1="165.812" y1="110.885" x2="178.143" y2="199.088" gradientUnits="userSpaceOnUse">
<stop stop-color="#8890F4"/>
<stop offset="0.2835" stop-color="#FFCFFD"/>
<stop offset="0.6062" stop-color="#F4F0FE"/>
<stop offset="0.7338" stop-color="#EFFFFF"/>
<stop offset="1" stop-color="#75D9DD"/>
</linearGradient>
<linearGradient id="paint3_linear_4629_775" x1="82.5454" y1="177.066" x2="173.477" y2="202.043" gradientUnits="userSpaceOnUse">
<stop offset="0.00507186" stop-color="#6F69F4"/>
<stop offset="0.4148" stop-color="#FFCEAD"/>
<stop offset="0.5961" stop-color="#EFEFB9"/>
<stop offset="0.6727" stop-color="#E7FFBF"/>
<stop offset="1" stop-color="#75D9DD"/>
</linearGradient>
<linearGradient id="paint4_linear_4629_775" x1="120.656" y1="131.195" x2="183.797" y2="206.698" gradientUnits="userSpaceOnUse">
<stop offset="0.00507186" stop-color="#6F69F4"/>
<stop offset="0.3821" stop-color="#FFAFFF"/>
<stop offset="0.5127" stop-color="#F5D1E4"/>
<stop offset="0.6727" stop-color="#E7FFBF"/>
<stop offset="0.9718" stop-color="#75D9DD"/>
</linearGradient>
<linearGradient id="paint5_linear_4629_775" x1="155.235" y1="97.0899" x2="149.664" y2="90.3277" gradientUnits="userSpaceOnUse">
<stop stop-color="#FFA2FF"/>
<stop offset="0.5569" stop-color="#FFFFB0"/>
<stop offset="0.7133" stop-color="#DDFFCA"/>
<stop offset="1" stop-color="#97FFFF"/>
</linearGradient>
<linearGradient id="paint6_linear_4629_775" x1="147.529" y1="100.455" x2="142.542" y2="94.02" gradientUnits="userSpaceOnUse">
<stop stop-color="#FFA2FF"/>
<stop offset="0.5569" stop-color="#FFFFB0"/>
<stop offset="0.7133" stop-color="#DDFFCA"/>
<stop offset="1" stop-color="#97FFFF"/>
</linearGradient>
<linearGradient id="paint7_linear_4629_775" x1="165.834" y1="95.5891" x2="158.095" y2="83.7515" gradientUnits="userSpaceOnUse">
<stop stop-color="#FFA2FF"/>
<stop offset="0.5569" stop-color="#FFFFB0"/>
<stop offset="0.7133" stop-color="#DDFFCA"/>
<stop offset="1" stop-color="#97FFFF"/>
</linearGradient>
<linearGradient id="paint8_linear_4629_775" x1="204.577" y1="106.047" x2="202.324" y2="100.006" gradientUnits="userSpaceOnUse">
<stop stop-color="#FFA2FF"/>
<stop offset="0.5569" stop-color="#FFFFB0"/>
<stop offset="0.7133" stop-color="#DDFFCA"/>
<stop offset="1" stop-color="#97FFFF"/>
</linearGradient>
<linearGradient id="paint9_linear_4629_775" x1="198.54" y1="107.056" x2="196.25" y2="101.429" gradientUnits="userSpaceOnUse">
<stop stop-color="#FFA2FF"/>
<stop offset="0.5569" stop-color="#FFFFB0"/>
<stop offset="0.7133" stop-color="#DDFFCA"/>
<stop offset="1" stop-color="#97FFFF"/>
</linearGradient>
<linearGradient id="paint10_linear_4629_775" x1="210.937" y1="104.861" x2="208.401" y2="96.2553" gradientUnits="userSpaceOnUse">
<stop stop-color="#FFA2FF"/>
<stop offset="0.5569" stop-color="#FFFFB0"/>
<stop offset="0.7133" stop-color="#DDFFCA"/>
<stop offset="1" stop-color="#97FFFF"/>
</linearGradient>
<linearGradient id="paint11_linear_4629_775" x1="167.808" y1="155.267" x2="133.72" y2="115.546" gradientUnits="userSpaceOnUse">
<stop offset="0.00507186" stop-color="#6F69F4"/>
<stop offset="0.3291" stop-color="#FFD9AD"/>
<stop offset="0.6346" stop-color="#EAFABD"/>
<stop offset="0.6727" stop-color="#E7FFBF"/>
<stop offset="1" stop-color="#75D9DD"/>
</linearGradient>
<linearGradient id="paint12_linear_4629_775" x1="165.376" y1="206.257" x2="79.2543" y2="201.981" gradientUnits="userSpaceOnUse">
<stop offset="0.00507186" stop-color="#6F69F4"/>
<stop offset="0.3302" stop-color="#FFECEC"/>
<stop offset="0.5907" stop-color="#EDFACB"/>
<stop offset="0.6727" stop-color="#E7FFBF"/>
<stop offset="0.9718" stop-color="#75D9DD"/>
</linearGradient>
<linearGradient id="paint13_linear_4629_775" x1="85.4478" y1="220.341" x2="164.817" y2="216.145" gradientUnits="userSpaceOnUse">
<stop offset="0.00507186" stop-color="#6F69F4"/>
<stop offset="0.3302" stop-color="#FFECEC"/>
<stop offset="0.5907" stop-color="#EDFACB"/>
<stop offset="0.6727" stop-color="#E7FFBF"/>
<stop offset="0.9718" stop-color="#75D9DD"/>
</linearGradient>
<linearGradient id="paint14_linear_4629_775" x1="153.232" y1="186.551" x2="86.9228" y2="169.651" gradientUnits="userSpaceOnUse">
<stop offset="0.00507186" stop-color="#6F69F4"/>
<stop offset="0.601" stop-color="#FFCEAD"/>
<stop offset="0.707" stop-color="#EFEFB9"/>
<stop offset="0.7518" stop-color="#E7FFBF"/>
<stop offset="0.976" stop-color="#75D9DD"/>
</linearGradient>
<linearGradient id="paint15_linear_4629_775" x1="196.161" y1="125.694" x2="180.939" y2="202.727" gradientUnits="userSpaceOnUse">
<stop stop-color="#8890F4"/>
<stop offset="0.4248" stop-color="#FFB8FD"/>
<stop offset="0.5488" stop-color="#F4D9FE"/>
<stop offset="0.6727" stop-color="#E7FFFF"/>
<stop offset="1" stop-color="#75D9DD"/>
</linearGradient>
<linearGradient id="paint16_linear_4629_775" x1="194.758" y1="172.089" x2="209.302" y2="118.443" gradientUnits="userSpaceOnUse">
<stop offset="0.00507186" stop-color="#6F69F4"/>
<stop offset="0.3291" stop-color="#FFCEAD"/>
<stop offset="0.5707" stop-color="#EFEFB9"/>
<stop offset="0.6727" stop-color="#E7FFBF"/>
<stop offset="1" stop-color="#75D9DD"/>
</linearGradient>
</defs>
</svg>
